<svg xmlns="http://www.w3.org/2000/svg" id="Group_4277" width="72.055" height="37.622" viewBox="0 0 72.055 37.622">
    <defs>
        <style>
            .cls-1{fill:#fff}
        </style>
    </defs>
    <g id="Group_4242" transform="translate(45.51 9.502)">
        <g id="Group_4241">
            <path id="Path_4051" d="M58.207 11.934l.141 6h-.974c-.157-.607-.8-2.716-.99-3.111a2.007 2.007 0 0 0-.809-.883 24.221 24.221 0 0 0-3.825-.068v5.016s1.343.056 1.667-.356a5.938 5.938 0 0 0 .683-2.6h.65v8h-.725a5.468 5.468 0 0 0-.574-2.03c-.348-.446-1.7-.432-1.7-.432v3.84c0 1.209.735 1.621 2.207 1.621l1.06.053c.7 0 .869-.183 1.334-.7a3.3 3.3 0 0 0 .757-1.232 21.888 21.888 0 0 0 .756-2.287l.886-.023-.055 5.189H45.75v-1.17c.909-.036 1.509.006 1.808-.036.129-.018.2-.108.2-.266 0-.243-.012-.533-.012-.887V14.907c0-.576-.937-.572-1.815-.572l-.185-.02v-2.381z" class="cls-1" transform="translate(-45.75 -11.934)"/>
        </g>
    </g>
    <g id="Group_4243" transform="translate(31.51 9.502)">
        <path id="Path_4052" d="M37.75 20.678v4.877c0 .587.083.629.3.766a2.494 2.494 0 0 0 .688.306 3.382 3.382 0 0 0 1.01.136v1.171h-8v-1.152c.517 0 .951.027 1.359.038.482.012.641-.229.641-1V14.659a1.722 1.722 0 0 0-.236-.67 2.189 2.189 0 0 0-1.764-.826v-1.229h8.779a5.012 5.012 0 0 1 2.718.668 3.791 3.791 0 0 1 1.5 1.656 4.962 4.962 0 0 1 .441 2.042 4.108 4.108 0 0 1-.487 2.081 4.341 4.341 0 0 1-1.123 1.319 5.193 5.193 0 0 1-1.641.842 8.514 8.514 0 0 1-2.421.277 14.333 14.333 0 0 1-1.764-.141zm0-7.678v6.847a4.908 4.908 0 0 0 1.05.119 2.943 2.943 0 0 0 2.965-2.009 5.236 5.236 0 0 0 .292-1.707 4.091 4.091 0 0 0-.325-1.646 2.717 2.717 0 0 0-1.066-1.226 3.5 3.5 0 0 0-1.92-.475 5.906 5.906 0 0 0-.996.097z" class="cls-1" transform="translate(-31.75 -11.934)"/>
    </g>
    <g id="Group_4244" transform="translate(60.852 10.502)">
        <path id="Path_4053" d="M70.867 26.934h-2.881l-1.917-3.407-1.741 4.407-3.128.036 3.326-7.229-3.431-7.807H64.4l2.1 4.7z" class="cls-1" transform="translate(-61.092 -12.934)"/>
    </g>
    <path id="Path_4054" d="M66.92 17.251s.1-3.547 2.814-4.539c0 0 2.709-1.96 2.549-3.324 0 0 .123 4.609-.4 5.576 0 0-.705 2.039-1.84 2.287a5.541 5.541 0 0 1-2.191 0s.976-2.233 1.9-2.332v-.091s-1.7-.361-2.7 2.434z" class="cls-1" transform="translate(-.24 -2.432)"/>
    <path id="Path_4055" d="M34.848 30.6l-2.319-2.911-12.977-25.02c-.163-.314-.434-.317-.6 0l-8.841 16.359-5.89 10.906h4.493l5.345-10.055c1.738.282 3.759 1.543 5.809 2.812a49.123 49.123 0 0 1 7.932 5.755 83.177 83.177 0 0 1 9.925 11.608l4.487-.141zM25.2 22.765l-9.711-4.284a.624.624 0 0 1-.162-.794l3.409-6.522a.379.379 0 0 1 .727.009c1.267 2.507 5.466 10.8 5.737 11.162.323.429 0 .429 0 .429z" class="cls-1" transform="translate(-.24 -2.432)"/>
    <path id="Path_4056" d="M.24 16.832s10.625 1.041 9.871 2.436l.989-1.831z" class="cls-1" transform="translate(-.24 -2.432)"/>
</svg>
