<svg xmlns="http://www.w3.org/2000/svg" id="calculate_black_24dp" width="24" height="24" viewBox="0 0 24 24">
    <defs>
        <style>
            .cls-2{fill:#fff}
        </style>
    </defs>
    <g id="Group_4226">
        <path id="Rectangle_2039" fill="none" d="M0 0H24V24H0z"/>
    </g>
    <g id="Group_4228" transform="translate(3 3)">
        <g id="Group_4227">
            <path id="Path_4015" d="M19 3H5a2.006 2.006 0 0 0-2 2v14a2.006 2.006 0 0 0 2 2h14a2.006 2.006 0 0 0 2-2V5a2.006 2.006 0 0 0-2-2zm0 16H5V5h14z" class="cls-2" transform="translate(-3 -3)"/>
            <path id="Rectangle_2040" d="M0 0H5V1.5H0z" class="cls-2" transform="translate(3.25 4.72)"/>
            <path id="Rectangle_2041" d="M0 0H5V1.5H0z" class="cls-2" transform="translate(10 12.75)"/>
            <path id="Rectangle_2042" d="M0 0H5V1.5H0z" class="cls-2" transform="translate(10 10.25)"/>
            <path id="Path_4016" d="M8 18h1.5v-2h2v-1.5h-2v-2H8v2H6V16h2z" class="cls-2" transform="translate(-3 -3)"/>
            <path id="Path_4017" d="M14.09 10.95l1.41-1.41 1.41 1.41 1.06-1.06-1.41-1.42 1.41-1.41L16.91 6 15.5 7.41 14.09 6l-1.06 1.06 1.41 1.41-1.41 1.42z" class="cls-2" transform="translate(-3 -3)"/>
        </g>
    </g>
</svg>
