<svg xmlns="http://www.w3.org/2000/svg" id="filter_alt_black_24dp" width="24" height="24" viewBox="0 0 24 24">
    <defs>
        <style>
            .cls-1{fill:none}
        </style>
    </defs>
    <path id="Path_4147" d="M0 0h24m0 24H0" class="cls-1"/>
    <path id="Path_4148" fill="#2960b6" d="M7 6h10l-5.01 6.3zm-2.75-.39C6.27 8.2 10 13 10 13v6a1 1 0 0 0 1 1h2a1 1 0 0 0 1-1v-6s3.72-4.8 5.74-7.39A1 1 0 0 0 18.95 4H5.04a1 1 0 0 0-.79 1.61z"/>
    <path id="Path_4149" d="M0 0h24v24H0z" class="cls-1"/>
</svg>
