<svg xmlns="http://www.w3.org/2000/svg" width="23.769" height="16.001" viewBox="0 0 23.769 16.001">
  <g id="main-account-open" transform="translate(0.001 0.001)">
    <g id="folder_black_24dp" data-name="folder black 24dp" transform="translate(-225.633 -422.971)">
      <path id="Path_4223" data-name="Path 4223" d="M245.632,426.97v1h-2v-1H234.8l-2-2h-5.17v9.67l-1,2.33a2.019,2.019,0,0,0,2,2h-1a2.019,2.019,0,0,1-2-2l.01-12a2,2,0,0,1,1.99-2h6l2,2h8A1.993,1.993,0,0,1,245.632,426.97Z" fill="#2eaf7d"/>
    </g>
    <path id="Path_4224" data-name="Path 4224" d="M247.712,427.97h-16.08c-1.1,0-1.34.27-1.99,2l-2.01,4.67-1,2.33a2.019,2.019,0,0,0,2,2h16c1.11-.01,1.689-.934,2-2l1-2.44,1.765-4.678A1.715,1.715,0,0,0,247.712,427.97Zm-2.08,6.67-1,2.33h-16l3-7h16Z" transform="translate(-225.633 -422.971)" fill="#2eaf7d"/>
  </g>
</svg>
