<svg xmlns="http://www.w3.org/2000/svg" width="258.447" height="275.292" viewBox="0 0 258.447 275.292">
  <g id="Group_6722" data-name="Group 6722" transform="translate(-328.776 -203.186)">
    <rect id="Rectangle_3208" data-name="Rectangle 3208" width="36" height="51" transform="translate(335 412)" fill="#3482db"/>
    <g id="percentage" transform="translate(328.776 203.186)">
      <path id="Path_4991" data-name="Path 4991" d="M216.708,168.512a84.256,84.256,0,1,0-84.256-84.256A84.352,84.352,0,0,0,216.708,168.512Zm0-152.374A68.118,68.118,0,1,1,148.59,84.256a68.2,68.2,0,0,1,68.118-68.118Z" transform="translate(-69.624)" fill="#2f406b"/>
      <g id="Path_4992" data-name="Path 4992" transform="translate(-118.067 -48.805)" fill="#35a169">
        <path d="M 237.4435119628906 114.7132263183594 C 234.5574340820313 114.7132263183594 232.6266937255859 113.3479614257813 231.5152282714844 112.2026519775391 C 229.9360198974609 110.5753555297852 229.0080718994141 108.3792953491211 228.90234375 106.0189971923828 C 228.8141326904297 104.0517959594727 229.6144866943359 102.0806427001953 231.1559600830078 100.4684906005859 C 232.8506317138672 98.69613647460938 235.2010955810547 97.63801574707031 237.4434814453125 97.63801574707031 C 240.3299102783203 97.63801574707031 242.2607727050781 99.0032958984375 243.3722991943359 100.1486129760742 C 244.9515380859375 101.7758865356445 245.8794860839844 103.9719314575195 245.9852294921875 106.3322525024414 C 246.0732574462891 108.2993240356445 245.2726898193359 110.2706298828125 243.7309875488281 111.8828735351563 C 242.0362548828125 113.6551513671875 239.685791015625 114.7132263183594 237.4435119628906 114.7132263183594 Z" stroke="none"/>
        <path d="M 237.4435119628906 111.2132263183594 C 238.7296752929688 111.2132263183594 240.1696014404297 110.5429458618164 241.2013854980469 109.4639587402344 C 241.7081756591797 108.9339828491211 242.54931640625 107.8427047729492 242.4887237548828 106.4888916015625 C 242.3725280761719 103.8949127197266 240.5648040771484 101.1380157470703 237.4434814453125 101.1380157470703 C 236.1572875976563 101.1380157470703 234.7173767089844 101.8083038330078 233.6856689453125 102.8872909545898 C 233.1790161132813 103.4171829223633 232.3381195068359 104.5082473754883 232.3988342285156 105.8623657226563 C 232.5150299072266 108.4563369750977 234.3225555419922 111.2132263183594 237.4435119628906 111.2132263183594 M 237.4435119628906 118.2132263183594 L 237.4434814453125 118.2132263183594 C 230.6949462890625 118.2132263183594 225.697998046875 112.6975479125977 225.4058532714844 106.1756134033203 C 225.1143493652344 99.67490386962891 231.1468811035156 94.13801574707031 237.4434814453125 94.13801574707031 C 244.192626953125 94.13801574707031 249.1895446777344 99.65367889404297 249.4817199707031 106.1756134033203 C 249.7726440429688 112.6763381958008 243.7401123046875 118.2132263183594 237.4435119628906 118.2132263183594 Z" stroke="none" fill="#2f406b"/>
      </g>
      <g id="Path_4993" data-name="Path 4993" transform="translate(-151.425 -81.799)" fill="#35a169">
        <path d="M 326.2154846191406 202.5132446289063 C 323.3294372558594 202.5132446289063 321.3987121582031 201.1479797363281 320.2872619628906 200.0026702880859 C 318.7080383300781 198.3753662109375 317.7800903320313 196.1792907714844 317.6743774414063 193.8189849853516 C 317.5861511230469 191.8513336181641 318.3866577148438 189.8798675537109 319.9284057617188 188.2676086425781 C 321.6227416992188 186.4957885742188 323.9726257324219 185.4380035400391 326.2143859863281 185.4380035400391 C 326.2146606445313 185.4380035400391 326.21484375 185.4380035400391 326.2151184082031 185.4380035400391 C 329.1015319824219 185.4380035400391 331.0322875976563 186.8032684326172 332.1437377929688 187.9485778808594 C 333.7229614257813 189.5758666992188 334.6509094238281 191.7719421386719 334.7566223144531 194.1322326660156 C 334.8448486328125 196.0994415283203 334.0444946289063 198.0705871582031 332.5030212402344 199.6827545166016 C 330.808349609375 201.4551086425781 328.4578857421875 202.5132446289063 326.2154846191406 202.5132446289063 Z" stroke="none"/>
        <path d="M 326.2154846191406 199.0132446289063 C 327.5016784667969 199.0132446289063 328.9416198730469 198.3429565429688 329.9733276367188 197.2639617919922 C 330.4799499511719 196.7340850830078 331.3208618164063 195.6430053710938 331.2601318359375 194.2888488769531 C 331.1439514160156 191.6948852539063 329.3360290527344 188.9380035400391 326.2144165039063 188.9380035400391 C 324.9286193847656 188.9380035400391 323.4891662597656 189.6080932617188 322.457763671875 190.6867828369141 C 321.9510803222656 191.2166900634766 321.1101379394531 192.307861328125 321.1708679199219 193.6623840332031 C 321.2870483398438 196.2563629150391 323.0945739746094 199.0132446289063 326.2154846191406 199.0132446289063 M 326.2154846191406 206.0132446289063 C 319.4669799804688 206.0132446289063 314.4700012207031 200.49755859375 314.1778869628906 193.9756011962891 C 313.8863830566406 187.4743041992188 319.9189147949219 181.9373626708984 326.2154846191406 181.9380035400391 C 332.9640197753906 181.9380035400391 337.9609680175781 187.4536895751953 338.2531127929688 193.9756011962891 C 338.5446472167969 200.4763336181641 332.5121154785156 206.0132446289063 326.2154846191406 206.0132446289063 Z" stroke="none" fill="#2f406b"/>
      </g>
      <g id="Path_4994" data-name="Path 4994" transform="translate(-124.41 -36.852)" fill="#35a169">
        <path d="M 251.6376495361328 175.3247375488281 C 250.8611145019531 175.3247375488281 250.0992889404297 175.1701812744141 249.3732604980469 174.8653717041016 C 247.9286804199219 174.2591094970703 246.8070526123047 173.1269683837891 246.2145385742188 171.6773376464844 C 245.6220245361328 170.2276611328125 245.6295166015625 168.6338958740234 246.2356414794922 167.1896362304688 L 287.2662048339844 69.42296600341797 C 288.1832885742188 67.23844146728516 290.3070678710938 65.82667541503906 292.6766357421875 65.82667541503906 C 293.4535827636719 65.82667541503906 294.2157592773438 65.98118591308594 294.9421081542969 66.28593444824219 C 297.9226684570313 67.53700256347656 299.3301086425781 70.98029327392578 298.0789794921875 73.96136474609375 L 257.0484008789063 171.72802734375 C 256.1314086914063 173.9129180908203 254.0075378417969 175.3247375488281 251.6376495361328 175.3247375488281 Z" stroke="none"/>
        <path d="M 251.6376495361328 171.8247375488281 C 252.3639221191406 171.8247375488281 253.37158203125 171.4446411132813 253.8211212158203 170.3735809326172 L 294.8516845703125 72.60688781738281 C 295.3559875488281 71.4052734375 294.7886352539063 70.01734161376953 292.6766357421875 69.32666778564453 C 291.9505004882813 69.32666778564453 290.9429626464844 69.70679473876953 290.4934997558594 70.77740478515625 L 249.4629516601563 168.5440368652344 C 248.9586181640625 169.7457580566406 249.5258026123047 171.1336517333984 250.7281036376953 171.6382293701172 C 251.0228576660156 171.7619934082031 251.3288879394531 171.8247375488281 251.6376495361328 171.8247375488281 M 251.6376495361328 178.8247375488281 C 250.4297790527344 178.8247375488281 249.2019195556641 178.5893859863281 248.0183868408203 178.0924987792969 L 248.0184326171875 178.0924987792969 C 243.2499084472656 176.0912322998047 241.0070953369141 170.6036529541016 243.0083465576172 165.8351745605469 L 284.0388793945313 68.06853485107422 C 286.040771484375 63.30007553100586 291.5276184082031 61.05780029296875 296.2962036132813 63.05849456787109 C 301.0640563964844 65.05977630615234 303.3075561523438 70.54734039306641 301.3062744140625 75.31581878662109 L 260.2757263183594 173.0824432373047 C 258.7713623046875 176.6667785644531 255.2962493896484 178.8247375488281 251.6376495361328 178.8247375488281 Z" stroke="none" fill="#2f406b"/>
      </g>
      <path id="Path_4990" data-name="Path 4990" d="M271.74,341.363a38.732,38.732,0,0,0-54.776,0l-24.211,24.21H181.271a39.538,39.538,0,0,0,7.789-23.608,8.069,8.069,0,0,0-8.069-8.069H154.2c-8.756,0-17.165-3.972-26.067-8.178-9.337-4.411-18.993-8.972-30.282-9.723a85.334,85.334,0,0,0-29.417,3.209A26.085,26.085,0,0,0,49.8,341.783H23.726a8.069,8.069,0,0,0-8.069,8.069v63.3a8.069,8.069,0,0,0,8.069,8.069H188.5a35.5,35.5,0,0,0,25.269-10.467l57.976-57.977A8.068,8.068,0,0,0,271.74,341.363ZM31.795,357.921H49.688V405.08H31.795ZM202.353,399.34a19.469,19.469,0,0,1-13.858,5.74H65.826v-61a9.839,9.839,0,0,1,7.085-9.368A69.236,69.236,0,0,1,96.78,332.1c8.235.548,16.116,4.27,24.46,8.213,10.12,4.781,20.584,9.724,32.96,9.724h17.3a23.657,23.657,0,0,1-20.549,15.478c-.387-.057-42.081-.1-42.081-.1a8.11,8.11,0,1,0-.106,16.22l87.33.074a8.065,8.065,0,0,0,5.705-2.364l26.574-26.573a22.641,22.641,0,0,1,25.2-4.661Z" transform="translate(-15.657 -145.926)" fill="#2f406b"/>
    </g>
  </g>
</svg>
