<svg xmlns="http://www.w3.org/2000/svg" width="14.741" height="19.529" viewBox="0 0 14.741 19.529">
    <g>
        <g fill="#2960b6">
            <path d="M63.1 3.9l-.02-.02v-.02L59.322.1 59.3.079a.019.019 0 0 1-.02-.02.019.019 0 0 1-.02-.02.325.325 0 0 0-.2-.04h-9.32a1.317 1.317 0 0 0-.93.376L48.8.4a1.382 1.382 0 0 0-.4.95v16.834a1.345 1.345 0 0 0 .4.95 1.382 1.382 0 0 0 .95.4H61.8a1.345 1.345 0 0 0 .95-.4 1.382 1.382 0 0 0 .4-.95V4.1a.585.585 0 0 0-.05-.2zm-3.659-2.475l2.236 2.236h-1.642a.539.539 0 0 1-.416-.178.617.617 0 0 1-.178-.416zm2.849 16.759a.543.543 0 0 1-.514.514h-12.03a.569.569 0 0 1-.356-.139.477.477 0 0 1-.139-.356V1.326a.5.5 0 0 1 .158-.356l.02-.02a.561.561 0 0 1 .336-.139h8.865v2.236a1.437 1.437 0 0 0 .435 1.029 1.467 1.467 0 0 0 1.029.416h2.2z" transform="translate(-0.162) translate(-48.238)"/>
            <text font-family="SegoeUI-Bold, Segoe UI" font-size="5px" font-weight="700" letter-spacing="0.013em" transform="translate(-0.162) translate(3.162 12)">
                <tspan x="0" y="0">PDF</tspan>
            </text>
        </g>
    </g>
</svg>
