<svg xmlns="http://www.w3.org/2000/svg" width="14.741" height="19.529" viewBox="0 0 14.741 19.529">
    <g>
        <g>
            <g fill="#2960b6">
                <path d="M63.1 3.9l-.02-.02v-.02L59.322.1 59.3.079a.019.019 0 0 1-.02-.02.019.019 0 0 1-.02-.02.325.325 0 0 0-.2-.04h-9.32a1.346 1.346 0 0 0-.95.4 1.382 1.382 0 0 0-.4.95v16.835a1.317 1.317 0 0 0 .376.93l.02.02a1.382 1.382 0 0 0 .95.4H61.8a1.345 1.345 0 0 0 .95-.4 1.382 1.382 0 0 0 .4-.95V4.1a.585.585 0 0 0-.05-.2zm-3.659-2.475l2.236 2.236h-1.642a.539.539 0 0 1-.416-.178.617.617 0 0 1-.178-.416zm2.849 16.759a.543.543 0 0 1-.514.514h-12.03a.5.5 0 0 1-.356-.158l-.02-.02a.561.561 0 0 1-.139-.336V1.326a.5.5 0 0 1 .158-.356.5.5 0 0 1 .356-.158h8.865v2.235a1.437 1.437 0 0 0 .435 1.029 1.467 1.467 0 0 0 1.029.416h2.216z" transform="translate(-0.162 0.471) translate(0) translate(-48.238 -0.471)"/>
                <text font-family="SegoeUI-Bold, Segoe UI" font-size="6px" font-weight="700" letter-spacing="0.013em" transform="translate(-0.162 0.471) translate(0) translate(2.163 11.529)">
                    <tspan x="0" y="0">XLS</tspan>
                </text>
            </g>
        </g>
    </g>
</svg>
